REM DIRINDEX 1\2,1\3,1\4,1\5
REM DIRNAME "folder01","folder02","folder03","folder04","folder05"
TITLE ""
FILE "P1Q_t_0378-0387.mp3" MP3
  TRACK 01 AUDIO
    TITLE "3:cjc173_2058"
    INDEX 01 00:00:00
  TRACK 02 AUDIO
    TITLE "0:"
    INDEX 01 00:01:25
  TRACK 03 AUDIO
    TITLE "4:cjc173_2059"
    INDEX 01 00:01:47
  TRACK 04 AUDIO
    TITLE "0:"
    INDEX 01 00:03:71
  TRACK 05 AUDIO
    TITLE "5:cjc173_2060"
    INDEX 01 00:04:12
  TRACK 06 AUDIO
    TITLE "0:"
    INDEX 01 00:09:01
  TRACK 07 AUDIO
    TITLE "3:cjc173_2061"
    INDEX 01 00:09:48
  TRACK 08 AUDIO
    TITLE "0:"
    INDEX 01 00:10:62
  TRACK 09 AUDIO
    TITLE "4:cjc173_2062"
    INDEX 01 00:11:08
  TRACK 10 AUDIO
    TITLE "0:"
    INDEX 01 00:13:58
  TRACK 11 AUDIO
    TITLE "5:cjc173_2063"
    INDEX 01 00:14:03
  TRACK 12 AUDIO
    TITLE "0:"
    INDEX 01 00:19:37
  TRACK 13 AUDIO
    TITLE "3:cjc173_2064"
    INDEX 01 00:20:07
  TRACK 14 AUDIO
    TITLE "0:"
    INDEX 01 00:21:18
  TRACK 15 AUDIO
    TITLE "4:cjc173_2065"
    INDEX 01 00:21:38
  TRACK 16 AUDIO
    TITLE "0:"
    INDEX 01 00:24:11
  TRACK 17 AUDIO
    TITLE "5:cjc173_2066"
    INDEX 01 00:24:30
  TRACK 18 AUDIO
    TITLE "0:"
    INDEX 01 00:30:47
  TRACK 19 AUDIO
    TITLE "3:cjc173_2067"
    INDEX 01 00:31:19
  TRACK 20 AUDIO
    TITLE "0:"
    INDEX 01 00:32:51
  TRACK 21 AUDIO
    TITLE "4:cjc173_2068"
    INDEX 01 00:32:75
  TRACK 22 AUDIO
    TITLE "0:"
    INDEX 01 00:36:10
  TRACK 23 AUDIO
    TITLE "5:cjc173_2069"
    INDEX 01 00:36:30
  TRACK 24 AUDIO
    TITLE "0:"
    INDEX 01 00:41:13
  TRACK 25 AUDIO
    TITLE "3:cjc173_2070"
    INDEX 01 00:41:62
  TRACK 26 AUDIO
    TITLE "0:"
    INDEX 01 00:43:20
  TRACK 27 AUDIO
    TITLE "4:cjc173_2071"
    INDEX 01 00:43:41
  TRACK 28 AUDIO
    TITLE "0:"
    INDEX 01 00:45:60
  TRACK 29 AUDIO
    TITLE "5:cjc173_2072"
    INDEX 01 00:46:06
  TRACK 30 AUDIO
    TITLE "0:"
    INDEX 01 00:51:43
  TRACK 31 AUDIO
    TITLE "3:cjc173_2073"
    INDEX 01 00:52:13
  TRACK 32 AUDIO
    TITLE "0:"
    INDEX 01 00:53:26
  TRACK 33 AUDIO
    TITLE "4:cjc173_2074"
    INDEX 01 00:53:54
  TRACK 34 AUDIO
    TITLE "0:"
    INDEX 01 00:55:05
  TRACK 35 AUDIO
    TITLE "5:cjc173_2075"
    INDEX 01 00:55:25
  TRACK 36 AUDIO
    TITLE "0:"
    INDEX 01 00:59:44
  TRACK 37 AUDIO
    TITLE "3:cjc173_2076"
    INDEX 01 01:00:20
  TRACK 38 AUDIO
    TITLE "0:"
    INDEX 01 01:01:35
  TRACK 39 AUDIO
    TITLE "4:cjc173_2077"
    INDEX 01 01:01:59
  TRACK 40 AUDIO
    TITLE "0:"
    INDEX 01 01:04:20
  TRACK 41 AUDIO
    TITLE "5:cjc173_2078"
    INDEX 01 01:04:40
  TRACK 42 AUDIO
    TITLE "0:"
    INDEX 01 01:09:31
  TRACK 43 AUDIO
    TITLE "3:cjc173_2079"
    INDEX 01 01:10:03
  TRACK 44 AUDIO
    TITLE "0:"
    INDEX 01 01:11:14
  TRACK 45 AUDIO
    TITLE "4:cjc173_2080"
    INDEX 01 01:11:36
  TRACK 46 AUDIO
    TITLE "0:"
    INDEX 01 01:13:68
  TRACK 47 AUDIO
    TITLE "5:cjc173_2081"
    INDEX 01 01:14:15
  TRACK 48 AUDIO
    TITLE "0:"
    INDEX 01 01:18:59
  TRACK 49 AUDIO
    TITLE "3:cjc173_2082"
    INDEX 01 01:19:29
  TRACK 50 AUDIO
    TITLE "0:"
    INDEX 01 01:20:37
  TRACK 51 AUDIO
    TITLE "4:cjc173_2083"
    INDEX 01 01:20:54
  TRACK 52 AUDIO
    TITLE "0:"
    INDEX 01 01:24:72
  TRACK 53 AUDIO
    TITLE "5:cjc173_2084"
    INDEX 01 01:25:22
  TRACK 54 AUDIO
    TITLE "0:"
    INDEX 01 01:30:12
  TRACK 55 AUDIO
    TITLE "3:cjc173_2085"
    INDEX 01 01:30:57
  TRACK 56 AUDIO
    TITLE "0:"
    INDEX 01 01:32:09
  TRACK 57 AUDIO
    TITLE "4:cjc173_2086"
    INDEX 01 01:32:30
  TRACK 58 AUDIO
    TITLE "0:"
    INDEX 01 01:35:25
  TRACK 59 AUDIO
    TITLE "5:cjc173_2087"
    INDEX 01 01:35:44
  TRACK 60 AUDIO
    TITLE "0:"
    INDEX 01 01:41:23
